<?xml version="1.0" encoding="UTF-8"?>
<svg width="14px" height="24px" viewBox="0 0 14 24" version="1.1" xmlns="http://www.w3.org/2000/svg" xmlns:xlink="http://www.w3.org/1999/xlink">
    <title>mouse</title>
    <g id="Page-1" stroke="none" stroke-width="1" fill="none" fill-rule="evenodd">
        <g id="mouse" fill="#000000" fill-rule="nonzero">
            <path d="M7,0 C3.14014111,0 0,3.16680909 0,7.05944822 L0,16.9405518 C0,20.8331909 3.14014111,24 7,24 C10.8598589,24 14,20.8331909 14,16.9405518 L14,7.05944822 C14,3.16680909 10.8598589,0 7,0 Z M12.5721845,16.9405518 C12.5721845,20.0390625 10.0724179,22.5600586 6.99999998,22.5600586 C3.92758209,22.5600586 1.42781553,20.0390625 1.42781553,16.9405518 L1.42781553,7.05944822 C1.42781553,3.9609375 3.92758209,1.43994141 6.99999998,1.43994141 C10.0724179,1.43994141 12.5721845,3.9609375 12.5721845,7.05944822 L12.5721845,16.9405518 Z" id="Shape"></path>
            <path d="M7.00018158,4.77429197 C6.60582561,4.77429197 6.28627381,5.09655759 6.28627381,5.49426272 L6.28627381,8.80810547 C6.28627381,9.20562745 6.60582561,9.52807617 7.00018158,9.52807617 C7.39435599,9.52807617 7.71408934,9.20562745 7.71408934,8.80810547 L7.71408934,5.49426272 C7.71408934,5.09655759 7.39453754,4.77429197 7.00018158,4.77429197 Z" id="Path"></path>
        </g>
    </g>
</svg>